Coordinates
version=1
nRows=22
nColumns=24
inDegrees=yes

Units are S.I. units (second, meters, Newtons, ...)
Angles are in degrees.

endheader
time	pelvis_tilt	pelvis_list	pelvis_rotation	pelvis_tx	pelvis_ty	pelvis_tz	hip_flexion_r	hip_adduction_r	hip_rotation_r	knee_angle_r	ankle_angle_r	subtalar_angle_r	mtp_angle_r	hip_flexion_l	hip_adduction_l	hip_rotation_l	knee_angle_l	ankle_angle_l	subtalar_angle_l	mtp_angle_l	lumbar_extension	lumbar_bending	lumbar_rotation
      3.26500000	    -10.37212165	     -1.21475962	      7.66295831	     -1.88540395	     -0.03694368	     -0.28691313	     35.60314368	     -3.26871657	    -16.06961926	    -13.11178757	     -0.91854459	     -2.32112966	     13.97926757	     -4.35466443	     -0.66040816	     -4.29000586	    -18.31918441	      5.69885619	     -1.76974957	      3.65546234	      4.88910315	      1.87781629	     -9.98697554
      3.27000000	    -10.35030963	     -1.52420441	      7.65611975	     -1.87682392	     -0.03755184	     -0.28606807	     35.37607265	     -2.84432462	    -15.88854463	    -13.32268010	     -2.09012802	     -3.10759363	     15.94407422	     -4.34768916	     -1.26073257	     -4.61428438	    -19.13457824	      4.67417015	     -1.40728585	      6.21993649	      5.06728178	      2.17910763	     -9.89308230
      3.27500000	    -10.44605142	     -1.82232215	      7.66034796	     -1.86834225	     -0.03818216	     -0.28538455	     35.34127163	     -2.49396128	    -15.83707963	    -13.72622282	     -2.95379897	     -3.53546331	     15.90045581	     -4.12490275	     -1.80478932	     -4.83012102	    -20.16766214	      4.06262974	     -0.94088599	      6.27239442	      5.36260476	      2.47690289	     -9.85265348
      3.28000000	    -10.50770087	     -2.16362833	      7.59854771	     -1.85986817	     -0.03866738	     -0.28458004	     35.27703636	     -2.04202096	    -15.66853272	    -14.10175604	     -4.04710449	     -4.26022949	     15.79241670	     -3.90258843	     -2.40774121	     -5.09544288	    -21.23860317	      3.28874931	     -0.52226552	      6.46692320	      5.62450249	      2.82842284	     -9.74052845
      3.28500000	    -10.57604395	     -2.54916667	      7.50840716	     -1.85144010	     -0.03905094	     -0.28374192	     35.24191016	     -1.53365983	    -15.45584269	    -14.49876077	     -5.22713088	     -5.10168082	     15.60085395	     -3.61300128	     -3.06401760	     -5.36601021	    -22.38138463	      2.37003873	     -0.14638398	      6.78112184	      5.89261911	      3.23150640	     -9.61877415
      3.29000000	    -10.64910851	     -2.95701946	      7.37153475	     -1.84302701	     -0.03933696	     -0.28280718	     35.23558136	     -0.97056087	    -15.14384267	    -14.93294155	     -6.42858173	     -6.06811978	     15.29449363	     -3.26658502	     -3.75840426	     -5.69874176	    -23.58476457	      1.26979420	      0.20658983	      7.28748536	      6.16709934	      3.65788933	     -9.44496532
      3.29500000	    -10.65910078	     -3.40095964	      7.15929251	     -1.83458623	     -0.03945237	     -0.28178178	     35.18082651	     -0.31971003	    -14.74956549	    -15.43219577	     -7.43349096	     -6.90507273	     14.30762305	     -2.99071303	     -4.50960323	     -6.08584268	    -24.66951281	     -0.60669413	      0.17574759	     10.39888137	      6.37636179	      4.14615106	     -9.19007916
      3.30000000	    -10.77523027	     -3.82280358	      7.02572865	     -1.82625532	     -0.03960709	     -0.28087465	     35.25597119	      0.23918147	    -14.38310475	    -15.97517585	     -8.42047497	     -7.80961117	     13.85727613	     -2.45923913	     -5.21865347	     -6.31002049	    -26.06193633	     -1.92264592	      0.47109369	     10.49304061	      6.69154763	      4.58855053	     -9.06304692
      3.30500000	    -10.87927013	     -4.23312542	      6.71447252	     -1.81784564	     -0.03973894	     -0.27965535	     35.34381400	      0.90788631	    -13.81620788	    -16.59040091	     -9.19509291	     -8.60781041	     12.95518458	     -1.95164665	     -5.94402896	     -6.75333917	    -27.43888902	     -3.54455591	      0.70716267	     11.33786358	      6.98418492	      5.03465380	     -8.70902145
      3.31000000	    -10.89178362	     -4.61328251	      6.57032149	     -1.80961374	     -0.03964219	     -0.27863535	     35.31645856	      1.46153683	    -13.37885917	    -17.25940961	     -9.52066078	     -9.16084261	     10.90188300	     -1.46080707	     -6.62489302	     -6.88541683	    -28.77735264	     -5.82274167	      0.45683968	     13.76507774	      7.16122958	      5.43686728	     -8.57716084
      3.31500000	    -10.95700302	     -4.95142782	      6.40680163	     -1.80138678	     -0.03961219	     -0.27761137	     35.32957824	      1.97112369	    -12.97570239	    -17.87050755	    -10.00885607	     -9.85589515	     10.57065698	     -0.82831687	     -7.24972488	     -6.99212275	    -30.33811737	     -7.62227618	      0.50330900	     13.66863879	      7.38799152	      5.79412115	     -8.43237901
      3.32000000	    -11.03651430	     -5.22405017	      6.17342339	     -1.79319458	     -0.03960600	     -0.27646114	     35.34674875	      2.46503142	    -12.48832793	    -18.48613673	    -10.29311454	    -10.47325161	     10.19235038	     -0.15548368	     -7.80393838	     -7.14204298	    -31.92107110	     -9.61281431	      0.42759467	     13.81604631	      7.60531272	      6.09206907	     -8.20580923
      3.32500000	    -11.06538696	     -5.51954919	      5.95391069	     -1.78499848	     -0.03953548	     -0.27532770	     35.28626530	      2.96697273	    -12.14601876	    -19.11629204	    -10.12280634	    -10.71218991	      9.04941805	      0.48671449	     -8.38949226	     -7.23639781	    -33.42550613	    -12.11495062	      0.04441081	     15.83563386	      7.76974377	      6.41766769	     -7.98843669
      3.33000000	    -11.00392132	     -5.79055392	      5.75339827	     -1.77686506	     -0.03937443	     -0.27431306	     35.07633178	      3.43724232	    -11.88242199	    -19.63983166	     -9.98511687	    -11.00117569	      9.05417778	      1.10081847	     -8.93012800	     -7.26657428	    -35.09263738	    -14.09393523	     -0.19981848	     15.49334325	      7.82216910	      6.73761360	     -7.78123379
      3.33500000	    -11.08906077	     -5.93204157	      5.50239389	     -1.76892976	     -0.03933998	     -0.27311897	     35.02466215	      3.80829698	    -11.52006786	    -20.17016415	     -9.82556004	    -11.38930364	      9.07082304	      1.91182611	     -9.29553755	     -7.23392922	    -36.78335826	    -16.15023849	     -0.58480293	     15.26789388	      7.98019912	      6.89479999	     -7.54890189
      3.34000000	    -11.09142730	     -6.13727648	      5.26320716	     -1.76105372	     -0.03922681	     -0.27207374	     34.84471151	      4.21759861	    -11.34110795	    -20.63683071	     -9.50141669	    -11.55284860	      9.20692912	      2.68337068	     -9.72476001	     -7.18666183	    -38.51438932	    -18.05504938	     -1.04670662	     15.00458103	      8.04162933	      7.14949984	     -7.30991266
      3.34500000	    -11.11026129	     -6.32347019	      5.02300160	     -1.75327975	     -0.03912950	     -0.27107159	     34.64907319	      4.60377158	    -11.17310769	    -21.05823659	     -9.05759792	    -11.65139670	      9.43846059	      3.51434891	    -10.10795845	     -7.09628442	    -40.26983452	    -19.83267501	     -1.63358009	     14.71172962	      8.10442054	      7.39128535	     -7.07469235
      3.35000000	    -11.17026834	     -6.48231957	      4.78919882	     -1.74561200	     -0.03907340	     -0.27010432	     34.46975944	      4.94974069	    -11.01985306	    -21.44694327	     -8.49989769	    -11.66390980	      9.83975850	      4.43063726	    -10.42424806	     -6.94101716	    -42.04377526	    -21.45228564	     -2.37663705	     14.37856923	      8.19225791	      7.59251248	     -6.85515619
      3.35500000	    -11.19755325	     -6.68226984	      4.54447575	     -1.73804747	     -0.03895286	     -0.26919387	     34.22405245	      5.33506701	    -10.94775078	    -21.76925870	     -7.94477305	    -11.61366177	     10.31895992	      5.35272574	    -10.77673087	     -6.80420689	    -43.83929827	    -22.86833136	     -3.21177264	     13.96660274	      8.22699592	      7.85208342	     -6.62097644
      3.36000000	    -11.30800690	     -6.86165194	      4.27039713	     -1.73062035	     -0.03893955	     -0.26836479	     34.05821888	      5.67881343	    -10.91004907	    -22.07425557	     -7.36713754	    -11.41250304	     11.38710547	      6.40780035	    -11.07720806	     -6.67442699	    -45.68369853	    -23.97541890	     -4.10712056	     13.27476346	      8.32424893	      8.10443398	     -6.35852962
      3.36500000	    -11.24202874	     -7.15078922	      4.03188354	     -1.72320932	     -0.03863148	     -0.26753648	     33.63490814	      6.16715642	    -10.89820767	    -22.23662341	     -6.89830699	    -11.43349550	     11.76724281	      7.29596469	    -11.50437738	     -6.53181578	    -47.46871628	    -25.02264445	     -5.20621266	     12.79375743	      8.23587579	      8.47157969	     -6.11577717
      3.37000000	    -11.29740505	     -7.38106508	      3.80387375	     -1.71587698	     -0.03844360	     -0.26676787	     33.31894923	      6.56625587	    -10.84967118	    -22.38787325	     -6.27736001	    -11.25178985	     12.35064111	      8.35546831	    -11.82726640	     -6.36430991	    -49.26040103	    -25.86464426	     -6.48318694	     12.11066853	      8.27005844	      8.76524708	     -5.92546182
